# xmcd
#
# Track frame offsets:
#	150
#	24119
#	43300
#	59598
#	79060
#	83277
#	89357
#
# Disc length: 1520 seconds
#
# Revision: 0
# Processed by: cddbd v1.5.2PL0 Copyright (c) Steve Scherf et al.
# Submitted via: audiograbber 1.83.01
#
DISCID=4805ee07
DTITLE=Bruce Springsteen - Devils and Dust CD2
DYEAR=2005
DGENRE=Blues
TTITLE0=Devils and Dust
TTITLE1=Long Time Coming
TTITLE2=Reno
TTITLE3=All I'm Thinking About
TTITLE4=Matamoros Banks
TTITLE5=Instruductions 1
TTITLE6=Instruductions  2
EXTD=
EXTT0=
EXTT1=
EXTT2=
EXTT3=
EXTT4=
EXTT5=
EXTT6=
PLAYORDER=
